<?xml version="1.0" encoding="UTF-8"?>
<svg id="Layer_2" data-name="Layer 2" xmlns="http://www.w3.org/2000/svg" viewBox="0 0 735.14 421.43">
  <defs>
    <style>
      .cls-1 {
        fill: #ffffff;
      }
    </style>
  </defs>
  <g id="Layer_1-2" data-name="Layer 1">
    <g>
      <rect class="cls-1" x="164.1" y="0" width="28.47" height="416.77"/>
      <path class="cls-1" d="M122.01,84.38c33.16,27.5,37.79,73.3,11.34,105.55-27.35,33.36-74.68,37.56-106.43,9.91C10.2,185.29.05,165.75.04,143.11l-.04-88.23,26.27,11.23,1.73,17.81c27.66-20.39,66.2-22.61,94.02.46ZM123.08,142.92c0-26.45-21.44-47.89-47.89-47.89s-47.89,21.44-47.89,47.89,21.44,47.89,47.89,47.89,47.89-21.44,47.89-47.89Z"/>
      <path class="cls-1" d="M473.55,173.93l24.47,13.41c-10.98,14.78-25.22,25.66-43.98,29.13-35.15,6.49-69.48-10.28-84.84-42.7-6.27-13.23-7.52-29.53-5.23-44.33,5.33-34.45,33.69-57.55,67.52-60.79,35.05-3.36,66.62,15.77,77.16,50.67l-53.19,30.67-49.19,28.72c19.51,16.6,47.36,17.59,67.29-4.77ZM471.36,109.28c-17.61-17.26-41.2-17.65-59.07-6.72-17.6,10.77-26.32,30.76-20.6,52.79l35.66-20.31,44.01-25.77Z"/>
      <path class="cls-1" d="M356.51,345.87c0,41.42-33.58,75-75,75s-75-33.58-75-75,33.58-75,75-75,75,33.58,75,75ZM273.07,299c-28.58,4.97-43.79,31.94-38.49,57.2,5.35,25.51,29.49,41.09,54.81,36.86,26.17-4.37,43.79-29.29,39.07-55.77-4.34-24.4-27.66-43.11-55.4-38.29Z"/>
      <path class="cls-1" d="M720.87,404.51c-34.29,25.73-89.3,23.11-112.09-16.28l23.28-12.32c21.42,30.9,74.94,15.21,76.04,1.12.23-2.89-5.06-8.59-7.88-9.32l-44.98-11.68c-11.13-2.89-22.77-7.72-31.9-14.18-17.04-12.05-17.91-35.27-3.98-49.85,6.07-6.36,13.95-12.66,22.41-15.74,31.85-11.59,73.2-5.42,90.19,27.42l-22.64,12.36-11.06-11.26c-23.32-12.89-58.39-4.25-60.94,10.01-.55,3.1,4.72,9.44,7.95,10.27l38.47,9.89c14.16,3.64,28.72,7.93,40.13,17.19,16.78,13.63,14.01,39.61-3,52.38Z"/>
      <path class="cls-1" d="M594.76,275.67v75.74c.01,26.21-13.42,48.62-36.08,61.29-29.54,16.53-64.65,9-86.63-17.43-8.89-10.69-15.02-26.47-15.04-40.98l-.13-78.54,27.79-.16.8,83.85c.21,22.45,26.19,36.96,44.96,34.29,23.25-3.31,36.79-21.7,36.65-44.93l-.45-73.04,28.13-.08Z"/>
      <path class="cls-1" d="M320.8,72.72l27.67.38v75.53c0,37.92-29.56,68.42-66.44,69.69-35.45,1.22-70.24-26.41-70.58-64.58l-.73-81.16,27.78.2.6,81c.16,20.98,19.62,36.15,38.25,37.26,19.3,1.15,42.41-13.23,42.63-34.87l.82-83.45Z"/>
      <path class="cls-1" d="M398.09,303.23l.83,47.85c.44,25.24,22.32,42.46,47.19,42.97l-.26,27.06c-42.19-.3-75.04-33.07-75.08-75.34l-.12-135.67,27.57,17.72.34,47.68,36.64.28.21,27.49-37.31-.04Z"/>
      <circle class="cls-1" cx="24.29" cy="24.61" r="24.08"/>
    </g>
  </g>
</svg>
